<svg width="37" height="35" viewBox="0 0 37 35" fill="none" xmlns="http://www.w3.org/2000/svg">
<g filter="url(#filter0_i_1166_589)">
<path d="M18.5 35C28.7173 35 37 27.165 37 17.5C37 7.83502 28.7173 0 18.5 0C8.28273 0 0 7.83502 0 17.5C0 27.165 8.28273 35 18.5 35Z" fill="url(#paint0_linear_1166_589)"/>
<path d="M20.21 18.9694C20.9353 19.369 21.8478 19.1047 22.248 18.379C22.6482 17.6533 22.3846 16.7411 21.6593 16.3415L20.9346 17.6555L20.21 18.9694ZM18.2165 16.8217L18.2043 18.3217V18.3217L18.2165 16.8217ZM14.7819 16.2915C14.0502 16.6806 13.7718 17.5888 14.1602 18.3202C14.5486 19.0516 15.4567 19.3292 16.1884 18.9402L15.4852 17.6159L14.7819 16.2915ZM20.9346 17.6555C21.6593 16.3415 21.6591 16.3414 21.6588 16.3413C21.6588 16.3412 21.6585 16.3411 21.6584 16.341C21.658 16.3408 21.6577 16.3406 21.6573 16.3404C21.6565 16.34 21.6556 16.3395 21.6547 16.339C21.6528 16.3379 21.6505 16.3367 21.6478 16.3352C21.6425 16.3323 21.6358 16.3287 21.6276 16.3243C21.6112 16.3155 21.5892 16.3038 21.5619 16.2896C21.5074 16.2612 21.4316 16.2226 21.3381 16.1772C21.1521 16.0868 20.8907 15.9669 20.5836 15.846C20.0063 15.6189 19.1195 15.3283 18.2287 15.3218L18.2165 16.8217L18.2043 18.3217C18.5343 18.3241 19.0067 18.4503 19.4831 18.6378C19.703 18.7243 19.8922 18.8111 20.0251 18.8757C20.0911 18.9077 20.1418 18.9336 20.1739 18.9504C20.19 18.9588 20.2013 18.9648 20.2075 18.9681C20.2105 18.9697 20.2123 18.9707 20.2128 18.9709C20.213 18.9711 20.2129 18.971 20.2124 18.9707C20.2122 18.9706 20.2118 18.9704 20.2114 18.9702C20.2112 18.9701 20.211 18.97 20.2108 18.9699C20.2106 18.9698 20.2104 18.9697 20.2104 18.9696C20.2102 18.9695 20.21 18.9694 20.9346 17.6555ZM18.2165 16.8217L18.2287 15.3218C17.3378 15.3153 16.4465 15.593 15.8655 15.8118C15.5565 15.9281 15.2932 16.0442 15.1058 16.1319C15.0116 16.176 14.9351 16.2135 14.8802 16.2411C14.8527 16.2549 14.8304 16.2663 14.8139 16.2748C14.8057 16.2791 14.7989 16.2826 14.7935 16.2854C14.7908 16.2868 14.7885 16.2881 14.7866 16.2891C14.7856 16.2896 14.7848 16.2901 14.784 16.2905C14.7836 16.2907 14.7832 16.2909 14.7829 16.291C14.7827 16.2911 14.7825 16.2913 14.7824 16.2913C14.7822 16.2914 14.7819 16.2915 15.4852 17.6159C16.1884 18.9402 16.1882 18.9403 16.188 18.9404C16.1879 18.9405 16.1877 18.9406 16.1876 18.9406C16.1874 18.9408 16.1871 18.9409 16.1869 18.941C16.1865 18.9412 16.1862 18.9414 16.186 18.9415C16.1855 18.9417 16.1854 18.9418 16.1856 18.9417C16.186 18.9415 16.1878 18.9405 16.1909 18.9389C16.1972 18.9357 16.2086 18.9298 16.2248 18.9217C16.2572 18.9054 16.3083 18.8803 16.3748 18.8492C16.5087 18.7866 16.6993 18.7025 16.9205 18.6192C17.4 18.4387 17.8743 18.3193 18.2043 18.3217L18.2165 16.8217Z" fill="#3D454A"/>
</g>
<defs>
<filter id="filter0_i_1166_589" x="0" y="0" width="37" height="39" filterUnits="userSpaceOnUse" color-interpolation-filters="sRGB">
<feFlood flood-opacity="0" result="BackgroundImageFix"/>
<feBlend mode="normal" in="SourceGraphic" in2="BackgroundImageFix" result="shape"/>
<feColorMatrix in="SourceAlpha" type="matrix" values="0 0 0 0 0 0 0 0 0 0 0 0 0 0 0 0 0 0 127 0" result="hardAlpha"/>
<feOffset dy="4"/>
<feGaussianBlur stdDeviation="2"/>
<feComposite in2="hardAlpha" operator="arithmetic" k2="-1" k3="1"/>
<feColorMatrix type="matrix" values="0 0 0 0 0.822115 0 0 0 0 0.822115 0 0 0 0 0.822115 0 0 0 1 0"/>
<feBlend mode="normal" in2="shape" result="effect1_innerShadow_1166_589"/>
</filter>
<linearGradient id="paint0_linear_1166_589" x1="18.5" y1="0" x2="18.5" y2="35" gradientUnits="userSpaceOnUse">
<stop offset="0.00961538" stop-color="#CACACA"/>
<stop offset="0.980769" stop-color="#FFFAFF"/>
</linearGradient>
</defs>
</svg>
