<svg width="37" height="38" viewBox="0 0 37 38" fill="none" xmlns="http://www.w3.org/2000/svg">
<g filter="url(#filter0_i_1166_559)">
<path d="M18.4719 38C28.6737 38 36.9438 29.4934 36.9438 19C36.9438 8.50659 28.6737 0 18.4719 0C8.27016 0 0 8.50659 0 19C0 29.4934 8.27016 38 18.4719 38Z" fill="url(#paint0_linear_1166_559)"/>
<path d="M21.0132 21.4392C17.6333 21.4392 18.8589 21.5848 15.0564 21.4392C13.3994 21.3758 14.019 18.118 15.0564 16.7809C16.015 15.5455 18.7181 15.6163 18.7181 15.6163C18.7181 15.6163 21.2268 15.4828 22.1399 16.7809C23.0801 18.1175 24.3931 21.4392 21.0132 21.4392Z" fill="#3D454A"/>
</g>
<defs>
<filter id="filter0_i_1166_559" x="0" y="0" width="36.9438" height="42" filterUnits="userSpaceOnUse" color-interpolation-filters="sRGB">
<feFlood flood-opacity="0" result="BackgroundImageFix"/>
<feBlend mode="normal" in="SourceGraphic" in2="BackgroundImageFix" result="shape"/>
<feColorMatrix in="SourceAlpha" type="matrix" values="0 0 0 0 0 0 0 0 0 0 0 0 0 0 0 0 0 0 127 0" result="hardAlpha"/>
<feOffset dy="4"/>
<feGaussianBlur stdDeviation="2"/>
<feComposite in2="hardAlpha" operator="arithmetic" k2="-1" k3="1"/>
<feColorMatrix type="matrix" values="0 0 0 0 0.937255 0 0 0 0 0.568627 0 0 0 0 0.639216 0 0 0 1 0"/>
<feBlend mode="normal" in2="shape" result="effect1_innerShadow_1166_559"/>
</filter>
<linearGradient id="paint0_linear_1166_559" x1="18.4719" y1="0" x2="18.4719" y2="38" gradientUnits="userSpaceOnUse">
<stop stop-color="#EE92A5"/>
<stop offset="1" stop-color="white"/>
</linearGradient>
</defs>
</svg>
